<svg xmlns="http://www.w3.org/2000/svg" viewBox="0 0 39.4 60.98"><defs><style>.cls-1{fill:#666;}.cls-2{fill:#383838;}.cls-3{fill:#1c1c1c;}.cls-4{fill:#333;}</style></defs><title>solidity</title><g id="Layer_2" data-name="Layer 2"><g id="Layer_2-2" data-name="Layer 2"><polygon class="cls-1" points="0 43.49 19.66 43.53 9.86 60.97 0 43.49"/><polygon class="cls-2" points="19.66 43.53 9.86 60.97 29.6 60.98 19.66 43.53"/><polygon class="cls-3" points="19.66 43.53 29.6 60.98 39.4 43.55 19.66 43.53"/><polygon class="cls-4" points="19.66 43.53 29.55 26 39.4 43.55 19.66 43.53"/><polygon class="cls-1" points="39.4 17.5 19.75 17.45 29.54 0.01 39.4 17.5"/><polygon class="cls-2" points="19.75 17.45 29.54 0.01 9.8 0 19.75 17.45"/><polygon class="cls-3" points="19.75 17.45 9.8 0 0 17.43 19.75 17.45"/><polygon class="cls-4" points="19.75 17.45 9.85 34.98 0 17.43 19.75 17.45"/></g></g></svg>